<?xml version="1.0" encoding="iso-8859-1"?>
<!-- Uploaded to: SVG Repo, www.svgrepo.com, Generator: SVG Repo Mixer Tools -->
<svg fill="#000000" height="800px" width="800px" version="1.1" id="Layer_1" xmlns="http://www.w3.org/2000/svg" xmlns:xlink="http://www.w3.org/1999/xlink" 
	 viewBox="0 0 512 512" xml:space="preserve">
<g>
	<g>
		<path d="M370.6,367.836c-5.889-2.158-12.444,0.842-14.611,6.742c-25.644,69.658-82.756,114.667-145.5,114.667
			c-87.833,0-159.289-86.767-159.289-193.422c0-106.653,71.456-193.422,159.289-193.422c62.378,0,119.356,44.647,145.167,113.733
			c2.2,5.889,8.755,8.87,14.633,6.681c5.889-2.203,8.878-8.745,6.678-14.636C347.811,130.1,282.456,79.644,210.489,79.644
			c-100.378,0-182.044,96.98-182.044,216.178C28.444,415.025,110.111,512,210.489,512c72.389,0,137.878-50.856,166.856-129.553
			C379.511,376.547,376.489,370.003,370.6,367.836z"/>
	</g>
</g>
<g>
	<g>
		<path d="M426.667,0c-31.367,0-56.889,25.525-56.889,56.889c0,31.369,25.522,56.889,56.889,56.889
			c31.367,0,56.889-25.519,56.889-56.889C483.556,25.525,458.034,0,426.667,0z M426.667,91.022
			c-18.822,0-34.133-15.311-34.133-34.133c0-18.82,15.311-34.133,34.133-34.133S460.8,38.069,460.8,56.889
			C460.8,75.711,445.489,91.022,426.667,91.022z"/>
	</g>
</g>
</svg>