<?xml version="1.0" encoding="iso-8859-1"?>
<!-- Uploaded to: SVG Repo, www.svgrepo.com, Generator: SVG Repo Mixer Tools -->
<svg fill="#000000" height="800px" width="800px" version="1.1" id="Layer_1" xmlns="http://www.w3.org/2000/svg" xmlns:xlink="http://www.w3.org/1999/xlink" 
	 viewBox="0 0 512 512" xml:space="preserve">
<g>
	<g>
		<path d="M410.147,0c-32.835,0-59.553,26.72-59.553,59.553c0,32.838,26.717,59.553,59.553,59.553
			c32.836,0,59.553-26.714,59.553-59.553C469.699,26.72,442.982,0,410.147,0z M410.147,95.284
			c-19.704,0-35.732-16.028-35.732-35.732c0-19.701,16.028-35.732,35.732-35.732c19.704,0,35.732,16.031,35.732,35.732
			C445.878,79.256,429.85,95.284,410.147,95.284z"/>
	</g>
</g>
<g>
	<g>
		<polygon points="316.243,107.041 316.243,83.22 64.74,83.22 42.301,83.22 42.301,107.195 42.301,285.854 42.301,309.675 
			42.301,512 66.122,512 66.122,309.52 268.601,309.52 268.601,285.699 66.122,285.699 66.122,107.041 		"/>
	</g>
</g>
</svg>